<!--?xml version="1.0" encoding="utf-8"?-->
<!-- Generator: Adobe Illustrator 18.1.1, SVG Export Plug-In . SVG Version: 6.00 Build 0)  -->

<svg version="1.1" id="iconDoSmall" xmlns="http://www.w3.org/2000/svg" xmlns:xlink="http://www.w3.org/1999/xlink" x="0px" y="0px" viewBox="0 0 512 512" style="width: 32px; height: 32px; opacity: 1;" xml:space="preserve">
<style type="text/css">
	.st0{fill:#4B4B4B;}
</style>
<g>
	<path class="st0" d="M511.985,499.042L511.869,0L0.007,0.122L0.13,512l511.863-0.122L511.985,499.042z M25.786,486.321
		L25.679,25.786l460.528-0.108l0.107,460.535L25.786,486.321z"></path>
	<polygon class="st0" points="129.222,333.596 99.507,363.303 84.496,378.313 67.678,395.132 67.678,444.376 101.613,444.376 
		116.869,444.322 133.687,427.504 148.697,412.493 178.405,382.787 213.618,417.992 213.664,298.382 94.007,298.382 	"></polygon>
	<polygon class="st0" points="382.779,178.412 412.486,148.705 427.497,133.694 444.315,116.869 444.315,67.64 410.379,67.632 
		395.132,67.686 378.306,84.504 363.295,99.515 333.588,129.229 298.375,94.016 298.328,213.625 417.985,213.625 	"></polygon>
	<polygon class="st0" points="84.496,133.694 99.507,148.705 129.222,178.412 94.007,213.625 213.618,213.672 213.618,94.016 
		178.405,129.229 148.697,99.515 133.687,84.504 116.869,67.686 67.632,67.686 67.625,101.62 67.678,116.869 	"></polygon>
	<polygon class="st0" points="427.497,378.313 412.486,363.303 382.779,333.596 417.985,298.382 298.375,298.336 298.375,417.992 
		333.588,382.787 363.295,412.493 378.306,427.504 395.132,444.322 444.368,444.322 444.368,410.388 444.315,395.132 	"></polygon>
</g>
</svg>
